<svg width="300" height="60" viewBox="0 0 300 60" fill="none" xmlns="http://www.w3.org/2000/svg">
<g clip-path="url(#clip0_7166_45160)">
<path d="M204.05 16.926H198.602C197.763 16.926 197.084 17.6005 197.084 18.4325V20.5665C197.084 21.3985 197.763 22.073 198.602 22.073H204.05C204.888 22.073 205.567 21.3985 205.567 20.5665V18.4325C205.567 17.6005 204.888 16.926 204.05 16.926Z" fill="#0075FF"/>
<path d="M99.6999 24.1674H94.2887C94.0893 24.1652 93.8915 24.2032 93.7073 24.2791C93.5231 24.3549 93.3563 24.4671 93.217 24.6088C93.0777 24.7504 92.9688 24.9187 92.8969 25.1033C92.8249 25.2879 92.7915 25.4851 92.7985 25.683V41.83C91.0182 43.5456 88.7768 45.134 86.3857 45.134C83.6374 45.134 81.7471 43.4638 81.7471 39.3748V25.6436C81.7492 25.4478 81.7116 25.2537 81.6367 25.0727C81.5617 24.8916 81.4509 24.7274 81.3107 24.5897C81.1706 24.452 81.004 24.3437 80.8209 24.2711C80.6378 24.1986 80.4418 24.1633 80.2447 24.1674H74.809C74.6121 24.1629 74.4162 24.1979 74.2332 24.2704C74.0502 24.3428 73.8839 24.4512 73.7441 24.5891C73.6044 24.727 73.4941 24.8914 73.42 25.0726C73.3459 25.2538 73.3094 25.448 73.3127 25.6436V39.3808C73.3127 47.5316 77.9086 50.9144 84.3977 50.9144C88.0622 50.9144 90.554 49.3988 92.8107 47.5407C92.8181 47.6619 92.8181 47.7833 92.8107 47.9045V49.4534C92.8037 49.6512 92.8372 49.8484 92.9091 50.0331C92.981 50.2177 93.0899 50.3859 93.2292 50.5276C93.3685 50.6693 93.5353 50.7814 93.7195 50.8573C93.9037 50.9332 94.1015 50.9712 94.3009 50.969H99.6999C99.8984 50.9699 100.095 50.931 100.278 50.8546C100.461 50.7781 100.627 50.6657 100.765 50.5241C100.903 50.3826 101.01 50.2147 101.082 50.0307C101.153 49.8467 101.185 49.6503 101.178 49.4534V25.6739C101.184 25.4777 101.15 25.2823 101.079 25.0994C101.007 24.9164 100.899 24.7497 100.761 24.6091C100.623 24.4685 100.458 24.3569 100.276 24.281C100.094 24.2051 99.8976 24.1665 99.6999 24.1674Z" fill="#0075FF"/>
<path d="M113.962 39.869C114.304 43.8096 116.066 45.5222 120.091 45.5222C122.152 45.5222 123.966 44.9341 124.8 43.9035C125.124 43.4911 125.542 43.1605 126.02 42.9382C126.497 42.716 127.021 42.6085 127.548 42.6244H131.124C131.319 42.6211 131.513 42.657 131.694 42.7299C131.875 42.8029 132.04 42.9115 132.178 43.049C132.315 43.1866 132.424 43.3504 132.496 43.5306C132.568 43.7108 132.603 43.9036 132.599 44.0975C132.599 49.2111 127.35 50.9753 119.501 50.9753C110.768 50.9753 105.521 46.2588 105.521 37.3683C105.521 28.4779 110.823 23.6978 119.501 23.6978C128.229 23.6978 133.475 28.3658 133.475 37.0167V38.3959C133.481 38.5895 133.446 38.7822 133.375 38.9624C133.303 39.1425 133.195 39.3064 133.058 39.4441C132.921 39.5817 132.757 39.6904 132.576 39.7634C132.395 39.8365 132.202 39.8724 132.006 39.869H113.962ZM113.913 34.81H125.047C124.897 31.1272 123.132 29.1539 119.501 29.1539C115.965 29.1539 114.109 31.1272 113.907 34.81H113.913Z" fill="#0075FF"/>
<path d="M149.713 50.975C141.837 50.975 136.838 49.2079 136.838 44.0943C136.832 43.9026 136.864 43.7117 136.934 43.5328C137.003 43.3539 137.109 43.1908 137.243 43.0532C137.378 42.9157 137.539 42.8065 137.717 42.7322C137.895 42.658 138.086 42.6202 138.28 42.6211H141.791C142.309 42.6075 142.823 42.7165 143.291 42.9389C143.758 43.1613 144.165 43.4908 144.479 43.9003C145.294 44.9309 147.074 45.5189 149.133 45.5189C153.17 45.5189 154.516 44.5884 154.516 43.2001C154.516 39.1232 136.805 41.3814 136.805 31.4543C136.805 25.9012 142.225 23.6824 149.001 23.6824C156.874 23.6824 161.87 25.4556 161.87 30.5722C161.876 30.7639 161.843 30.9548 161.773 31.1337C161.704 31.3126 161.598 31.4757 161.464 31.6134C161.33 31.7511 161.169 31.8606 160.991 31.9353C160.813 32.01 160.621 32.0485 160.428 32.0484H156.916C156.399 32.0635 155.885 31.9552 155.418 31.7327C154.951 31.5101 154.544 31.1798 154.232 30.7693C153.414 29.7326 151.64 29.1445 149.575 29.1445C146.262 29.1445 144.918 30.0751 144.918 31.4543C144.918 35.5403 162.63 33.179 162.63 43.2001C162.627 48.7653 157.204 50.975 149.713 50.975Z" fill="#0075FF"/>
<path d="M51.6267 35.1617C54.4606 35.1617 55.8225 33.9916 56.7967 31.9304L59.09 26.8047C59.3848 26.1475 59.8617 25.5869 60.465 25.1881C61.0683 24.7894 61.7734 24.569 62.498 24.5526H66.9717C68.239 24.5526 68.3917 25.5316 67.7992 26.8017L64.7272 33.546C63.7134 35.6982 61.762 37.4138 59.6672 37.8533C61.6735 38.4384 63.2767 39.8115 64.7272 42.1606L68.7673 48.7201C69.5429 49.9992 69.207 50.9753 67.9367 50.9753H63.4721C61.9117 50.9753 60.5986 49.9992 59.8229 48.7201L56.7967 43.7732C55.4897 41.6271 53.8224 40.5965 51.6267 40.5965V49.5052C51.6321 49.6974 51.5983 49.8886 51.5275 50.0676C51.4567 50.2466 51.3503 50.4095 51.2146 50.5468C51.0789 50.684 50.9168 50.7927 50.7378 50.8663C50.5589 50.9399 50.3668 50.977 50.1732 50.9753H44.6215C44.4273 50.9774 44.2346 50.9406 44.055 50.8672C43.8754 50.7939 43.7125 50.6854 43.576 50.5482C43.4395 50.411 43.3322 50.248 43.2605 50.0688C43.1888 49.8896 43.1542 49.6979 43.1588 49.5052V18.5872C43.1534 18.3943 43.1874 18.2022 43.2588 18.0226C43.3301 17.843 43.4374 17.6797 43.574 17.5423C43.7107 17.405 43.874 17.2965 44.054 17.2234C44.234 17.1503 44.427 17.1142 44.6215 17.1171H50.1732C50.367 17.115 50.5592 17.1518 50.7384 17.2252C50.9175 17.2987 51.0798 17.4074 51.2156 17.5447C51.3513 17.682 51.4577 17.8451 51.5284 18.0243C51.5991 18.2034 51.6325 18.3949 51.6267 18.5872V35.1617Z" fill="#0075FF"/>
<path d="M175.504 35.0889C178.338 35.0889 179.699 33.9098 180.674 31.8395L182.967 26.6865C183.26 26.0273 183.736 25.4646 184.34 25.0642C184.943 24.6637 185.649 24.4421 186.375 24.4252H190.849C192.116 24.4252 192.269 25.4104 191.679 26.6865L188.607 33.4642C187.59 35.6254 185.639 37.3501 183.544 37.7897C185.55 38.3807 187.154 39.7599 188.607 42.1212L192.656 48.7049C193.432 49.9901 193.096 50.9722 191.826 50.9722H187.349C185.789 50.9722 184.476 49.9901 183.685 48.7049L180.658 43.7338C179.351 41.5786 177.684 40.542 175.488 40.542V49.493C175.495 49.6858 175.461 49.8779 175.391 50.0578C175.321 50.2376 175.214 50.4015 175.079 50.5396C174.943 50.6777 174.781 50.7872 174.601 50.8616C174.422 50.9359 174.229 50.9735 174.035 50.9722H168.498C168.304 50.9739 168.11 50.9366 167.93 50.8625C167.75 50.7884 167.587 50.6791 167.451 50.541C167.314 50.403 167.207 50.239 167.136 50.0589C167.064 49.8789 167.03 49.6864 167.036 49.493V18.4296C167.03 18.2365 167.064 18.0443 167.136 17.8645C167.207 17.6848 167.314 17.5212 167.451 17.3836C167.587 17.246 167.751 17.1373 167.931 17.0638C168.111 16.9904 168.304 16.9539 168.498 16.9564H174.05C174.244 16.9543 174.437 16.9911 174.616 17.0648C174.795 17.1385 174.958 17.2474 175.094 17.385C175.229 17.5227 175.336 17.6862 175.406 17.8657C175.477 18.0452 175.51 18.237 175.504 18.4296V35.0889Z" fill="#0075FF"/>
<path d="M198.605 50.9752C198.403 50.9752 198.203 50.9354 198.017 50.8581C197.83 50.7808 197.661 50.6675 197.519 50.5249C197.377 50.3822 197.265 50.213 197.189 50.027C197.114 49.841 197.076 49.642 197.078 49.4414V25.8377C197.076 25.6371 197.114 25.4381 197.189 25.2521C197.265 25.0661 197.377 24.8969 197.519 24.7542C197.661 24.6116 197.83 24.4983 198.017 24.421C198.203 24.3437 198.403 24.3039 198.605 24.3039H204.142C204.345 24.3006 204.546 24.3381 204.734 24.4142C204.922 24.4903 205.093 24.6035 205.235 24.7468C205.378 24.8902 205.49 25.0607 205.564 25.2482C205.639 25.4357 205.674 25.6362 205.668 25.8377V49.4414C205.674 49.6428 205.639 49.8434 205.564 50.0309C205.49 50.2184 205.378 50.3889 205.235 50.5323C205.093 50.6756 204.922 50.7888 204.734 50.8649C204.546 50.941 204.345 50.9785 204.142 50.9752H198.605Z" fill="#0075FF"/>
</g>
<path d="M32.9714 29.6059C32.9714 30.3311 31.5727 42.9015 30.9116 49.0477C30.7188 50.8608 28.8762 50.9786 28.3804 50.9786H7.09014C4.87419 50.9786 4.08455 50.0147 3.8703 48.8634C3.64381 47.6547 2.4685 35.8367 1.88084 31.7211L1.67578 29.6754C1.67578 28.6571 2.39809 27.7808 3.402 27.7808H31.135C31.3782 27.7807 31.619 27.8284 31.8435 27.921C32.0679 28.0137 32.2714 28.1494 32.4423 28.3203C32.6131 28.4912 32.7479 28.6939 32.8387 28.9167C32.9295 29.1395 32.9747 29.3778 32.9714 29.618V29.6059Z" fill="url(#paint0_linear_7166_45160)"/>
<path d="M32.9809 17.125H24.1585C24.2196 14.9648 25.2365 14.3134 27.31 13.0015L32.1961 9.89589C32.8543 9.5039 33.4034 8.95487 33.7932 8.29872C34.1831 7.64257 34.4015 6.90013 34.4284 6.13892V1.52148C34.4284 0.209572 33.4695 -0.141887 32.2175 0.661014L25.7373 4.80883C23.4195 6.30253 22.0728 7.9659 21.462 10.0171C21.0498 7.85985 19.3702 5.83897 17.2509 4.77853L10.8379 1.5942C9.57974 0.988234 8.62085 1.13973 8.61169 2.44558L8.59642 7.06301C8.60142 7.79595 8.81056 8.51325 9.20074 9.13563C9.59093 9.75801 10.1469 10.2612 10.8074 10.5897L15.6262 12.959C17.6143 13.9528 18.7594 14.3285 18.8022 17.122H1.43528C1.24749 17.1208 1.06131 17.1564 0.887421 17.2268C0.713537 17.2972 0.555375 17.4009 0.422016 17.5321C0.288657 17.6633 0.182727 17.8193 0.110305 17.9912C0.037884 18.1632 0.000398258 18.3476 0 18.5339L0 24.1693C0.00119923 24.3552 0.0392756 24.5389 0.112055 24.7101C0.184834 24.8813 0.290891 25.0367 0.42417 25.1672C0.557449 25.2977 0.71534 25.401 0.888827 25.471C1.06231 25.541 1.248 25.5764 1.43528 25.5752H32.9809C33.169 25.5776 33.3557 25.5431 33.5302 25.4736C33.7047 25.4041 33.8637 25.3011 33.998 25.1704C34.1322 25.0398 34.2391 24.8841 34.3125 24.7123C34.3858 24.5404 34.4242 24.3559 34.4254 24.1693V18.5339C34.4246 18.3471 34.3865 18.1622 34.3133 17.9901C34.2402 17.8179 34.1333 17.6618 33.9991 17.5308C33.8648 17.3999 33.7056 17.2966 33.5309 17.2269C33.3562 17.1573 33.1692 17.1226 32.9809 17.125V17.125Z" fill="url(#paint1_linear_7166_45160)"/>
<path style="mix-blend-mode:hard-light" opacity="0.4" d="M32.9809 17.125H24.1585C24.2196 14.9648 25.2365 14.3134 27.31 13.0015L32.1961 9.89589C32.8543 9.5039 33.4034 8.95487 33.7932 8.29872C34.1831 7.64257 34.4015 6.90013 34.4284 6.13892V1.52148C34.4284 0.209572 33.4695 -0.141887 32.2175 0.661014L25.7373 4.80883C23.4195 6.30253 22.0728 7.9659 21.462 10.0171C21.0498 7.85985 19.3702 5.83897 17.2509 4.77853L10.8379 1.5942C9.57974 0.988234 8.62085 1.13973 8.61169 2.44558L8.59642 7.06301C8.60142 7.79595 8.81056 8.51325 9.20074 9.13563C9.59093 9.75801 10.1469 10.2612 10.8074 10.5897L15.6262 12.959C17.6143 13.9528 18.7594 14.3285 18.8022 17.122H1.43528C1.24749 17.1208 1.06131 17.1564 0.887421 17.2268C0.713537 17.2972 0.555375 17.4009 0.422016 17.5321C0.288657 17.6633 0.182727 17.8193 0.110305 17.9912C0.037884 18.1632 0.000398258 18.3476 0 18.5339L0 24.1693C0.00119923 24.3552 0.0392756 24.5389 0.112055 24.7101C0.184834 24.8813 0.290891 25.0367 0.42417 25.1672C0.557449 25.2977 0.71534 25.401 0.888827 25.471C1.06231 25.541 1.248 25.5764 1.43528 25.5752H32.9809C33.169 25.5776 33.3557 25.5431 33.5302 25.4736C33.7047 25.4041 33.8637 25.3011 33.998 25.1704C34.1322 25.0398 34.2391 24.8841 34.3125 24.7123C34.3858 24.5404 34.4242 24.3559 34.4254 24.1693V18.5339C34.4246 18.3471 34.3865 18.1622 34.3133 17.9901C34.2402 17.8179 34.1333 17.6618 33.9991 17.5308C33.8648 17.3999 33.7056 17.2966 33.5309 17.2269C33.3562 17.1573 33.1692 17.1226 32.9809 17.125V17.125Z" fill="url(#paint2_linear_7166_45160)" fill-opacity="0.5"/>
<path d="M225.853 24.376C221.78 24.376 218.474 26.2788 216.557 29.2281L216.413 24.9469H213.586V59.3875H216.653V46.7814C218.569 49.6832 221.828 51.4909 225.853 51.4909C232.945 51.4909 237.784 46.1155 237.784 37.9334C237.784 29.7514 232.945 24.376 225.853 24.376ZM216.653 42.9283V32.9386C218.186 29.2281 221.492 27.0399 225.374 27.0399C230.98 27.0399 234.67 31.3212 234.67 37.9334C234.67 44.4981 230.98 48.827 225.374 48.827C221.492 48.827 218.186 46.5912 216.653 42.9283Z" fill="#0075FF"/>
<path d="M260.525 50.92H263.352V34.3657C263.352 28.134 259.231 24.376 252.618 24.376C246.293 24.376 242.028 27.7535 241.645 33.3192H244.76C244.999 29.3233 247.97 26.8972 252.522 26.8972C257.362 26.8972 260.285 29.7038 260.285 34.2706V35.6025H253.864C246.58 35.6025 242.46 38.6946 242.46 44.07C242.46 48.7794 245.718 51.4909 250.749 51.4909C255.302 51.4909 258.512 49.3978 260.333 45.83L260.525 50.92ZM245.574 43.9748C245.574 40.2644 248.497 38.1237 253.72 38.1237H260.285V42.5953C258.272 46.5436 255.158 48.827 251.133 48.827C247.683 48.827 245.574 47.1144 245.574 43.9748Z" fill="#0075FF"/>
<path d="M277.025 40.0701L270.556 24.2769H267.297L277.791 49.8219L277.073 51.6296C275.443 55.4827 274.245 56.7671 271.945 56.7671H267.633V59.2883H271.993C275.443 59.2883 277.456 58.1466 279.421 53.4372L291.496 24.2769H288.285L281.864 40.0701L279.421 46.3969L277.025 40.0701Z" fill="#0075FF"/>
<path d="M300.001 47.0364C300.007 47.866 299.765 48.6788 299.305 49.3716C298.845 50.0644 298.188 50.606 297.418 50.9277C296.647 51.2493 295.798 51.3365 294.978 51.1782C294.157 51.0198 293.403 50.6231 292.81 50.0384C292.217 49.4537 291.812 48.7073 291.647 47.8939C291.482 47.0805 291.565 46.2369 291.884 45.47C292.203 44.7031 292.744 44.0475 293.439 43.5865C294.133 43.1254 294.951 42.8797 295.786 42.8804C296.339 42.8737 296.888 42.9763 297.401 43.1824C297.913 43.3885 298.379 43.6939 298.772 44.0808C299.164 44.4677 299.475 44.9284 299.686 45.4358C299.897 45.9433 300.004 46.4874 300.001 47.0364V47.0364ZM299.209 47.0364C299.207 46.3616 299.003 45.7026 298.624 45.1427C298.244 44.5828 297.706 44.1472 297.077 43.8907C296.449 43.6343 295.757 43.5686 295.091 43.702C294.425 43.8353 293.813 44.1617 293.334 44.64C292.854 45.1182 292.528 45.7268 292.397 46.3889C292.265 47.051 292.335 47.7369 292.596 48.3599C292.857 48.9828 293.299 49.515 293.864 49.8891C294.43 50.2632 295.095 50.4624 295.775 50.4616C296.229 50.468 296.681 50.3837 297.102 50.2138C297.523 50.0438 297.906 49.7917 298.227 49.4723C298.549 49.1529 298.802 48.7728 298.973 48.3543C299.144 47.9359 299.228 47.4877 299.221 47.0364H299.209ZM296.162 44.9466C296.954 44.9466 297.587 45.3983 297.587 46.1957C297.596 46.4718 297.512 46.743 297.348 46.966C297.184 47.1889 296.949 47.3506 296.681 47.4252L297.717 49.1261H296.768L295.818 47.4881H295.082V49.1261H294.279V44.9466H296.162ZM295.082 46.8871H295.988C296.42 46.8871 296.744 46.671 296.744 46.239C296.744 45.8069 296.443 45.6144 295.988 45.6144H295.082V46.8871Z" fill="#0075FF"/>
<defs>
<linearGradient id="paint0_linear_7166_45160" x1="6.16315" y1="27.8153" x2="22.399" y2="57.2002" gradientUnits="userSpaceOnUse">
<stop stop-color="#25A2FA"/>
<stop offset="0.483812" stop-color="#0075FF"/>
<stop offset="1" stop-color="#3F58EA"/>
</linearGradient>
<linearGradient id="paint1_linear_7166_45160" x1="31.9588" y1="25.488" x2="3.52271" y2="-1.12095" gradientUnits="userSpaceOnUse">
<stop stop-color="#00BBE9"/>
<stop offset="0.1" stop-color="#01C3DC"/>
<stop offset="0.18" stop-color="#02CDCE"/>
<stop offset="0.24" stop-color="#09D1C0"/>
<stop offset="0.37" stop-color="#1BDD9A"/>
<stop offset="0.55" stop-color="#38EF5F"/>
<stop offset="0.59" stop-color="#3FF350"/>
<stop offset="0.67" stop-color="#4BF550"/>
<stop offset="0.82" stop-color="#69F950"/>
<stop offset="1" stop-color="#95FF4F"/>
<stop offset="1" stop-color="#95FF4F"/>
</linearGradient>
<linearGradient id="paint2_linear_7166_45160" x1="1.19403" y1="26.4023" x2="36.2816" y2="3.43514" gradientUnits="userSpaceOnUse">
<stop stop-color="#01BDE6" stop-opacity="0"/>
<stop offset="0.1" stop-color="#06BEE2" stop-opacity="0.02"/>
<stop offset="0.23" stop-color="#14C2D7" stop-opacity="0.08"/>
<stop offset="0.36" stop-color="#2AC8C4" stop-opacity="0.17"/>
<stop offset="0.51" stop-color="#4AD0AA" stop-opacity="0.31"/>
<stop offset="0.65" stop-color="#73DB88" stop-opacity="0.48"/>
<stop offset="0.81" stop-color="#A5E85F" stop-opacity="0.69"/>
<stop offset="1" stop-color="#EEFB24"/>
</linearGradient>
<clipPath id="clip0_7166_45160">
<rect width="218.497" height="50.9752" fill="white" transform="translate(0.0566406)"/>
</clipPath>
</defs>
</svg>
