<svg width="40" height="41" viewBox="0 0 40 41" xmlns="http://www.w3.org/2000/svg">
    <defs>
        <linearGradient x1="36.348%" y1="8.547%" x2="69.384%" y2="88.315%" id="xkgixug7ca">
            <stop stop-color="#192647" stop-opacity=".5" offset="0%"/>
            <stop stop-color="#192647" stop-opacity="0" offset="100%"/>
        </linearGradient>
        <linearGradient x1="99.998%" y1="50.003%" x2=".001%" y2="50.003%" id="t1on19mu6b">
            <stop stop-color="#003267" stop-opacity=".6" offset="1%"/>
            <stop stop-color="#003267" stop-opacity="0" offset="100%"/>
        </linearGradient>
    </defs>
    <g fill="none" fill-rule="evenodd">
        <path d="M0 0h40v40H0z"/>
        <g fill-rule="nonzero">
            <path d="M30.776 10.315a1.189 1.189 0 0 0-.19-.052c-.308-.056-.61-.12-.91-.195a19.53 19.53 0 0 1-2.185-.668 9.82 9.82 0 0 1-.42-.165c-3.338-1.315-6.095-3.369-7.9-4.952a1.107 1.107 0 0 0-.726-.275h-.004a1.109 1.109 0 0 0-.732.28A30.928 30.928 0 0 1 13.65 7.3c-.348.216-.708.427-1.079.632-.891.496-1.814.934-2.763 1.31a20.624 20.624 0 0 1-1.715.59c-.593.175-1.194.32-1.801.434a1.115 1.115 0 0 0-.915 1.092v8.752c0 .142 0 .284.005.425v.083c0 .12.006.239.012.358v.056a19.245 19.245 0 0 0 .024.412 18.587 18.587 0 0 0 .455 2.998c0 .008.004.017.006.025.123.509.267 1.01.432 1.507l.018.055.083.248c.01.028.018.055.03.083l.082.231.035.092.087.227.034.083c.101.25.208.498.319.743l.041.092.089.187c.02.045.041.089.063.133.028.058.056.115.082.173.026.058.048.097.073.145l.083.165c.026.055.054.101.082.153.029.051.056.104.083.155.027.051.062.11.093.165.03.055.052.094.082.141.045.083.091.158.138.236l.082.135c.046.076.092.152.139.226l.074.117.119.186.082.122c.04.06.083.119.12.177l.083.122.127.18.082.114.143.194.07.094a17.663 17.663 0 0 0 1.349 1.594 17.836 17.836 0 0 0 3.333 2.742l.215.134a17.904 17.904 0 0 0 1.982 1.053 17.135 17.135 0 0 0 2.223.822c.197.057.407.057.604 0a17.187 17.187 0 0 0 4.028-1.765 17.787 17.787 0 0 0 5.08-4.575l.07-.094.142-.195.083-.114c.042-.059.082-.12.127-.18l.083-.121c.04-.059.082-.118.12-.177l.082-.122c.041-.062.083-.124.119-.186l.074-.117.14-.228.078-.131c.047-.083.094-.159.14-.239.027-.046.052-.093.082-.14l.093-.166c.028-.051.056-.103.082-.155.027-.052.055-.102.083-.153.028-.051.057-.11.083-.165l.072-.145c.029-.058.057-.115.083-.173l.063-.133.089-.187.042-.093c.11-.245.216-.493.317-.743l.035-.083c.03-.075.059-.151.087-.227l.035-.092c.029-.077.057-.154.083-.232l.03-.082c.028-.083.056-.166.082-.248l.019-.056a17.393 17.393 0 0 0 .503-1.827c0-.008 0-.017.006-.025.192-.882.319-1.776.381-2.677v-.02c.01-.131.017-.261.023-.392v-.055c.005-.119.01-.239.013-.359v-.083c0-.141.005-.283.005-.425v-8.759c-.001-.46-.286-.874-.717-1.038z" fill="url(#xkgixug7ca)" transform="translate(6.4 2.467)"/>
            <path d="M7.343 8.782a1.114 1.114 0 0 0-.914 1.092v8.755c0 4.169 1.34 8.084 3.876 11.323a17.609 17.609 0 0 0 8.884 6.057c.198.058.407.058.604 0a17.616 17.616 0 0 0 8.885-6.057c2.535-3.239 3.875-7.154 3.875-11.323V9.874a1.114 1.114 0 0 0-.918-1.092c-4.911-.914-9.012-3.863-11.418-5.974a1.106 1.106 0 0 0-1.46 0c-2.412 2.11-6.507 5.06-11.414 5.974z" fill="#0065AA"/>
            <path d="M19.484 2.533c-.269 0-.528.098-.73.276-2.409 2.11-6.504 5.059-11.41 5.974a1.114 1.114 0 0 0-.915 1.092v8.754c0 .591.028 1.176.083 1.754h12.973V2.533h-.001z" fill="#004486"/>
            <path d="M6.506 20.387a18.104 18.104 0 0 0 3.794 9.57 17.609 17.609 0 0 0 8.885 6.057c.098.029.199.043.301.044v-15.67H6.506zM32.548 18.633V9.878c0-.538-.385-1-.914-1.096-4.91-.914-9.011-3.863-11.417-5.974a1.105 1.105 0 0 0-.733-.275v17.854h12.983c.054-.578.081-1.163.081-1.754z" fill="#0065AA"/>
            <path d="M19.484 20.387v15.67c.102 0 .204-.014.302-.044a17.616 17.616 0 0 0 8.885-6.057 18.101 18.101 0 0 0 3.793-9.57h-12.98v.001z" fill="#004486"/>
            <path d="M25.234 6.315c-2.009-.374-3.882-1.089-5.559-1.948L6.125 29.853a17.448 17.448 0 0 0 6.66 3.694c.197.058.406.058.604 0a17.616 17.616 0 0 0 8.884-6.057c2.535-3.239 3.876-7.154 3.876-11.323V7.413c0-.538-.385-1.001-.915-1.098z" fill="url(#t1on19mu6b)" transform="translate(6.4 2.467)"/>
            <path d="M25.527 19.234a6.04 6.04 0 1 1-6.044-6.036h.001a6.04 6.04 0 0 1 6.044 6.036" fill="#00CFCE"/>
            <path d="M18.245 22.116a.7.7 0 0 1-.495-.205l-1.86-1.86a.702.702 0 0 1 .991-.992l1.365 1.362 3.855-3.855a.702.702 0 0 1 .991.991l-4.35 4.358a.707.707 0 0 1-.497.201z" fill="#0065AA"/>
        </g>
    </g>
</svg>
