<?xml version="1.0" encoding="UTF-8" standalone="no"?><!DOCTYPE svg PUBLIC "-//W3C//DTD SVG 1.1//EN" "http://www.w3.org/Graphics/SVG/1.1/DTD/svg11.dtd"><svg width="100%" height="100%" viewBox="0 0 51 51" version="1.1" xmlns="http://www.w3.org/2000/svg" xmlns:xlink="http://www.w3.org/1999/xlink" xml:space="preserve" xmlns:serif="http://www.serif.com/" style="fill-rule:evenodd;clip-rule:evenodd;stroke-linejoin:round;stroke-miterlimit:2;"><path d="M10.975,50.401l-8.928,0c-0.987,0 -1.786,-0.799 -1.786,-1.785l0,-8.929c0,-0.986 0.799,-1.786 1.786,-1.786c0.986,0 1.785,0.8 1.785,1.786l0,7.143l7.143,0c0.986,0 1.786,0.799 1.786,1.786c0,0.986 -0.799,1.785 -1.786,1.785Zm37.5,0l-8.928,0c-0.987,0 -1.786,-0.799 -1.786,-1.785c0,-0.987 0.799,-1.786 1.786,-1.786l7.143,0l0,-7.143c0,-0.986 0.799,-1.786 1.785,-1.786c0.986,0 1.786,0.8 1.786,1.786l0,8.929c0,0.986 -0.799,1.785 -1.786,1.785Zm-8.462,-8.608l-29.504,0c-0.906,0 -1.64,-0.734 -1.64,-1.639l0,-29.505c0,-0.905 0.734,-1.639 1.64,-1.639l29.504,0c0.906,0 1.639,0.734 1.639,1.639l0,29.505c0,0.905 -0.733,1.638 -1.639,1.639Zm-1.639,-29.505l-26.226,0l0,26.226l26.226,0l0,-26.226Zm-3.278,22.948l-19.67,0l0,-19.67l19.67,0l0,19.67Zm15.165,-33.049l0,8.929c0,0.986 -0.8,1.785 -1.786,1.785c-0.986,0 -1.785,-0.799 -1.785,-1.785l0,-7.143l-7.143,0c-0.987,0 -1.786,-0.8 -1.786,-1.786c0,-0.986 0.799,-1.786 1.786,-1.786l8.928,0c0.986,0 1.786,0.8 1.786,1.786Zm-48.214,-1.786l8.928,0c0.986,0 1.786,0.8 1.786,1.786c0,0.986 -0.8,1.786 -1.786,1.786l-7.143,0l0,7.143c0,0.986 -0.799,1.785 -1.785,1.785c-0.987,0 -1.786,-0.799 -1.786,-1.785l0,-8.929c0,-0.986 0.799,-1.786 1.786,-1.786Z" style="fill:#c9c9c9;"/></svg>